<svg width="22" height="22" viewBox="0 0 22 22" fill="none" xmlns="http://www.w3.org/2000/svg">
<path fill-rule="evenodd" clip-rule="evenodd" d="M10.3708 0.953735C9.78852 0.953735 9.28378 1.35686 9.15503 1.92477L8.80584 3.46501C8.24997 3.62667 7.7197 3.84804 7.22252 4.12158L5.88637 3.2793C5.39376 2.96877 4.7518 3.04063 4.34004 3.45239L3.45111 4.34132C3.03934 4.75308 2.96749 5.39505 3.27802 5.88766L4.1206 7.22428C3.8473 7.72132 3.62612 8.25143 3.46463 8.8071L1.92452 9.15626C1.35662 9.28501 0.953491 9.78975 0.953491 10.3721V11.6292C0.953491 12.2115 1.35662 12.7163 1.92452 12.845L3.4648 13.1942C3.62639 13.75 3.84769 14.2803 4.12115 14.7774L3.27871 16.1138C2.96818 16.6064 3.04003 17.2484 3.4518 17.6602L4.34073 18.5491C4.75249 18.9609 5.39445 19.0327 5.88706 18.7222L7.22355 17.8797C7.72043 18.153 8.25035 18.3742 8.80584 18.5357L9.15503 20.076C9.28378 20.6439 9.78852 21.047 10.3708 21.047H11.628C12.2103 21.047 12.715 20.6439 12.8438 20.076L13.1929 18.5363C13.7488 18.3747 14.2792 18.1535 14.7765 17.8801L16.1129 18.7225C16.6055 19.033 17.2474 18.9612 17.6592 18.5494L18.5481 17.6605C18.9599 17.2487 19.0317 16.6067 18.7212 16.1141L17.8791 14.7782C18.1527 14.2808 18.3742 13.7503 18.5359 13.1941L20.0757 12.845C20.6436 12.7163 21.0468 12.2115 21.0468 11.6292V10.3721C21.0468 9.78975 20.6436 9.28501 20.0757 9.15626L18.5361 8.8072C18.3745 8.2512 18.1531 7.72079 17.8796 7.22349L18.7219 5.88736C19.0324 5.39475 18.9606 4.75278 18.5488 4.34102L17.6599 3.45209C17.2481 3.04033 16.6062 2.96847 16.1135 3.279L14.7775 4.12122C14.2799 3.84753 13.7492 3.62608 13.1929 3.46445L12.8438 1.92477C12.715 1.35686 12.2103 0.953735 11.628 0.953735H10.3708ZM7.2169 5.59174C7.9894 5.05036 8.8832 4.67027 9.84942 4.50036L10.3708 2.2004H11.628L12.1493 4.50002C13.116 4.66973 14.0103 5.04981 14.7832 5.59133L16.7784 4.33362L17.6673 5.22255L16.4095 7.21777C16.9508 7.99042 17.3308 8.88438 17.5006 9.85075L19.8001 10.3721V11.6292L17.5004 12.1506C17.3306 13.1171 16.9504 14.0111 16.4089 14.7838L17.6666 16.7789L16.7777 17.6679L14.7823 16.41C14.0096 16.9512 13.1157 17.3311 12.1493 17.5007L11.628 19.8003H10.3708L9.84942 17.5004C8.88358 17.3305 7.9901 16.9507 7.21782 16.4096L5.22226 17.6676L4.33332 16.7786L5.59125 14.7831C5.05 14.0106 4.67003 13.1168 4.50022 12.1507L2.20016 11.6292V10.3721L4.50012 9.85065C4.66981 8.88461 5.0496 7.99094 5.59063 7.21847L4.33263 5.22285L5.22157 4.33391L7.2169 5.59174ZM13.2367 11.0002C13.2367 12.2354 12.2354 13.2367 11.0002 13.2367C9.76498 13.2367 8.76365 12.2354 8.76365 11.0002C8.76365 9.76496 9.76498 8.76363 11.0002 8.76363C12.2354 8.76363 13.2367 9.76496 13.2367 11.0002ZM14.5567 11.0002C14.5567 12.9644 12.9644 14.5567 11.0002 14.5567C9.03597 14.5567 7.44365 12.9644 7.44365 11.0002C7.44365 9.03595 9.03597 7.44363 11.0002 7.44363C12.9644 7.44363 14.5567 9.03595 14.5567 11.0002Z" fill="#FEF9FA"/>
</svg>
