<svg width="45" height="44" viewBox="0 0 45 44" fill="none" xmlns="http://www.w3.org/2000/svg">
<path d="M19.9743 0.15605C9.60329 1.28333 1.26139 9.62523 0.134105 19.7708C-0.993178 30.3673 5.09415 39.8364 14.3379 43.4437C15.0143 43.6692 15.6906 43.2183 15.6906 42.3165V38.7092C15.6906 38.7092 14.7888 38.9346 13.6615 38.9346C10.5051 38.9346 9.15238 36.2291 8.92692 34.6509C8.70146 33.7491 8.25055 33.0727 7.57418 32.3964C6.89781 32.1709 6.67235 32.1709 6.67235 31.9455C6.67235 31.4945 7.34872 31.4945 7.57418 31.4945C8.92692 31.4945 10.0542 33.0727 10.5051 33.7491C11.6324 35.5528 12.9851 36.0037 13.6615 36.0037C14.5633 36.0037 15.2397 35.7782 15.6906 35.5528C15.9161 33.9746 16.5924 32.3964 17.9452 31.4945C12.7597 30.3673 8.92692 27.4363 8.92692 22.4763C8.92692 19.9962 10.0542 17.5162 11.6324 15.7126C11.4069 15.2617 11.1815 14.1344 11.1815 12.5562C11.1815 11.6543 11.1815 10.3016 11.8579 8.94886C11.8579 8.94886 15.0143 8.94886 18.1706 11.8798C19.2979 11.4289 20.8761 11.2034 22.4543 11.2034C24.0325 11.2034 25.6107 11.4289 26.9635 11.8798C29.8944 8.94886 33.2762 8.94886 33.2762 8.94886C33.7272 10.3016 33.7272 11.6543 33.7272 12.5562C33.7272 14.3598 33.5017 15.2617 33.2762 15.7126C34.8544 17.5162 35.9817 19.7708 35.9817 22.4763C35.9817 27.4363 32.149 30.3673 26.9635 31.4945C28.3162 32.6218 29.218 34.6509 29.218 36.68V42.5419C29.218 43.2183 29.8944 43.8947 30.7962 43.6692C39.1381 40.2873 45 32.1709 45 22.7017C45 9.17432 33.5017 -1.42215 19.9743 0.15605Z" fill="#1D1D1D"/>
</svg>
