<svg width="800" height="700" viewBox="0 0 800 700" fill="none" xmlns="http://www.w3.org/2000/svg">
<g clip-path="url(#clip0_12_136)">
<path d="M756.869 631.06L758.106 603.25C770.999 596.358 785.38 592.718 800 592.645C779.879 609.095 782.394 640.806 768.752 662.928C764.444 669.795 758.647 675.605 751.789 679.926C744.931 684.248 737.188 686.971 729.134 687.894L712.296 698.203C709.986 685.323 710.495 672.095 713.79 659.43C717.084 646.766 723.084 634.966 731.378 624.843C736.087 619.211 741.486 614.194 747.449 609.911C751.482 620.544 756.869 631.06 756.869 631.06Z" fill="#F2F2F2"/>
<path d="M656.884 696.516C694.151 696.516 724.362 666.304 724.362 629.037C724.362 591.77 694.151 561.559 656.884 561.559C619.617 561.559 589.405 591.77 589.405 629.037C589.405 666.304 619.617 696.516 656.884 696.516Z" fill="#CBC9FF"/>
<path d="M629.345 602.643C628.419 607.619 626.9 612.466 624.821 617.081C612.918 642.262 646.816 634.054 658.93 634.054C672.175 634.054 684.848 641.019 682.913 610.072C682.086 596.853 672.175 586.09 658.93 586.09C647.617 586.09 631.71 591.118 629.345 602.643Z" fill="#2F2E41"/>
<path d="M656.946 634.048C667.709 634.048 676.434 625.323 676.434 614.56C676.434 603.797 667.709 595.072 656.946 595.072C646.183 595.072 637.458 603.797 637.458 614.56C637.458 625.323 646.183 634.048 656.946 634.048Z" fill="#FFB6B6"/>
<path d="M643.711 594.694C647.126 592.612 651.038 591.486 655.037 591.434C659.036 591.381 662.976 592.404 666.445 594.395C669.913 596.386 672.783 599.272 674.755 602.752C676.726 606.232 677.726 610.178 677.651 614.177C667.72 616.67 657.288 618.578 646.698 614.773L644.197 608.652L642.723 614.777C639.498 616.096 636.264 617.211 633.031 614.765C632.899 610.777 633.816 606.825 635.69 603.303C637.564 599.781 640.33 596.812 643.711 594.694Z" fill="#2F2E41"/>
<path d="M709.352 673.906C697.661 687.208 681.209 695.379 663.546 696.656C645.883 697.932 628.426 692.212 614.945 680.729L620.733 664.579C622.04 661.711 624.105 659.252 626.703 657.468C629.302 655.683 632.338 654.64 635.485 654.449L639.167 654.223L647.946 646.651C647.946 646.651 671.603 645.806 671.252 645.401L685.582 654.021L685.57 653.961L691.203 654.306C694.35 654.496 697.386 655.539 699.985 657.324C702.584 659.109 704.648 661.567 705.955 664.436L709.352 673.906Z" fill="#3F3D56"/>
<path d="M134.957 153.403C134.933 166.749 130.953 179.788 123.518 190.872C116.084 201.955 105.53 210.586 93.1908 215.671C80.8517 220.756 67.2817 222.069 54.1968 219.442C41.1119 216.815 29.0998 210.367 19.6795 200.913C10.2592 191.459 3.85381 179.424 1.27335 166.33C-1.30711 153.236 0.0532288 139.671 5.18237 127.35C10.3115 115.029 18.9791 104.505 30.089 97.1105C41.1989 89.7156 54.2522 85.7812 67.5981 85.8049C76.466 85.7976 85.248 87.5428 93.4392 90.9403C101.63 94.3378 109.07 99.3205 115.329 105.602C121.588 111.884 126.545 119.341 129.913 127.544C133.282 135.747 134.996 144.535 134.957 153.403Z" fill="#2E2E2E"/>
<path d="M36.2028 131.333C38.993 122.44 45.338 114.285 54.1131 111.278C62.8886 108.272 75.7383 112.852 82.3355 119.427C94.4031 131.453 97.3481 172.77 89.0571 185.827C87.408 185.739 81.7176 185.675 80.0485 185.612L77.6874 177.743V185.535C75.0283 185.452 72.3485 185.396 69.6478 185.364C60.5928 185.252 51.9341 181.634 45.4918 175.269C39.0496 168.905 35.3257 160.291 35.103 151.239C34.887 142.578 35.1033 134.837 36.2028 131.333Z" fill="#CCCCCC"/>
<path d="M66.4777 160.804C77.0987 160.804 85.7086 152.194 85.7086 141.573C85.7086 130.952 77.0987 122.342 66.4777 122.342C55.8568 122.342 47.2468 130.952 47.2468 141.573C47.2468 152.194 55.8568 160.804 66.4777 160.804Z" fill="#CCCCCC"/>
<path d="M49.8808 124.683L72.0234 113.596C76.5503 115.636 80.449 118.85 83.3153 122.904C86.1815 126.959 87.9108 131.706 88.3239 136.654L88.8758 143.265L79.6036 140.905L78.5878 132.452L77.0132 140.246L72.7342 139.157L72.7749 126.033L68.4932 139.148L53.2102 135.636L49.8808 124.683Z" fill="#CCCCCC"/>
<path d="M117.552 197.938C105.862 211.24 89.4091 219.411 71.7462 220.687C54.0833 221.964 36.6268 216.243 23.1452 204.761L28.933 188.611C30.2409 185.742 32.305 183.284 34.9038 181.499C37.5026 179.715 40.5382 178.671 43.685 178.481L47.367 178.255L56.1469 170.682C56.1469 170.682 79.8036 169.838 79.4526 169.433L93.7823 178.052L93.7704 177.993L99.4035 178.338C102.551 178.528 105.586 179.571 108.185 181.355C110.784 183.14 112.848 185.599 114.156 188.468L117.552 197.938Z" fill="#CCCCCC"/>
<path d="M67.9589 530.669C105.226 530.669 135.437 500.458 135.437 463.191C135.437 425.923 105.226 395.712 67.9589 395.712C30.6915 395.712 0.480377 425.923 0.480377 463.191C0.480377 500.458 30.6915 530.669 67.9589 530.669Z" fill="#2E2E2E"/>
<path d="M40.4198 436.797C39.4936 441.773 37.975 446.619 35.8963 451.234C23.993 476.415 57.8913 468.208 70.0055 468.208C83.2505 468.208 95.9232 475.172 93.9877 444.225C93.1609 431.006 83.2505 420.243 70.0055 420.243C58.6921 420.243 42.7855 425.272 40.4198 436.797Z" fill="#CCCCCC"/>
<path d="M68.021 468.202C78.7841 468.202 87.5093 459.477 87.5093 448.714C87.5093 437.95 78.7841 429.225 68.021 429.225C57.2579 429.225 48.5327 437.95 48.5327 448.714C48.5327 459.477 57.2579 468.202 68.021 468.202Z" fill="#CCCCCC"/>
<path d="M54.7864 428.848C58.2014 426.766 62.113 425.64 66.1121 425.587C70.1113 425.534 74.0512 426.557 77.5198 428.548C80.9885 430.539 83.8585 433.426 85.8298 436.906C87.8011 440.386 88.8012 444.331 88.7256 448.33C78.7953 450.823 68.3629 452.731 57.7731 448.927L55.2721 442.806L53.7977 448.931C50.5727 450.249 47.3393 451.365 44.106 448.918C43.974 444.931 44.8909 440.978 46.7652 437.456C48.6394 433.934 51.4054 430.966 54.7864 428.848Z" fill="#CCCCCC"/>
<path d="M120.427 508.06C108.736 521.362 92.2837 529.533 74.6208 530.809C56.9579 532.086 39.5014 526.365 26.0198 514.883L31.8075 498.733C33.1155 495.864 35.1795 493.406 37.7784 491.621C40.3772 489.837 43.4127 488.793 46.5595 488.603L50.2416 488.377L59.0214 480.804C59.0214 480.804 82.6782 479.96 82.3272 479.555L96.6569 488.174L96.645 488.115L102.278 488.46C105.425 488.65 108.461 489.693 111.06 491.477C113.659 493.262 115.723 495.721 117.03 498.59L120.427 508.06Z" fill="#CCCCCC"/>
<path d="M358.27 468.998C418.609 468.998 467.523 420.083 467.523 359.744C467.523 299.405 418.609 250.491 358.27 250.491C297.931 250.491 249.016 299.405 249.016 359.744C249.016 420.083 297.931 468.998 358.27 468.998Z" fill="#2E2E2E"/>
<path d="M362.723 370.889C382.398 370.889 398.348 354.939 398.348 335.263C398.348 315.588 382.398 299.638 362.723 299.638C343.047 299.638 327.097 315.588 327.097 335.263C327.097 354.939 343.047 370.889 362.723 370.889Z" fill="#CCCCCC"/>
<path d="M394.09 311.728C394.09 311.728 403.365 293.996 382.959 292.384C382.959 292.384 365.562 276.603 347.83 289.499C347.83 289.499 338.157 289.499 332.868 300.444C332.868 300.444 325.261 297.559 323.59 305.28C323.59 305.28 318.023 321.4 323.59 335.909C329.156 350.417 331.005 352.029 331.005 352.029C331.005 352.029 327.099 334.025 349.363 332.413C371.627 330.801 392.052 316.854 393.907 334.586C395.763 352.318 397.802 344.308 397.802 344.308C397.802 344.308 415.425 318.982 394.09 311.728Z" fill="#CCCCCC"/>
<path d="M439.829 432.391C420.902 453.928 394.264 467.158 365.666 469.224C337.068 471.291 308.805 462.029 286.977 443.438L296.348 417.29C298.465 412.645 301.807 408.665 306.015 405.776C310.223 402.886 315.138 401.197 320.232 400.888L326.194 400.522L340.409 388.262C340.409 388.262 378.712 386.894 378.143 386.24L401.344 400.195L401.325 400.098L410.445 400.657C415.541 400.964 420.456 402.653 424.664 405.543C428.872 408.433 432.214 412.413 434.33 417.058L439.829 432.391Z" fill="#CCCCCC"/>
<path d="M178.328 360.105C215.596 360.105 245.807 329.893 245.807 292.626C245.807 255.359 215.596 225.148 178.328 225.148C141.061 225.148 110.85 255.359 110.85 292.626C110.85 329.893 141.061 360.105 178.328 360.105Z" fill="#2E2E2E"/>
<path d="M176.466 300.985C188.362 300.985 198.006 291.341 198.006 279.445C198.006 267.549 188.362 257.905 176.466 257.905C164.57 257.905 154.926 267.549 154.926 279.445C154.926 291.341 164.57 300.985 176.466 300.985Z" fill="#CCCCCC"/>
<path d="M228.952 337.774C217.262 351.076 200.809 359.247 183.146 360.524C165.483 361.8 148.027 356.08 134.545 344.597L140.333 328.447C141.641 325.579 143.705 323.12 146.304 321.336C148.903 319.551 151.938 318.508 155.085 318.317L158.767 318.091L167.547 310.519C167.547 310.519 191.204 309.674 190.853 309.27L205.182 317.889L205.17 317.829L210.804 318.174C213.951 318.364 216.987 319.407 219.585 321.192C222.184 322.977 224.248 325.435 225.556 328.304L228.952 337.774Z" fill="#CCCCCC"/>
<path d="M199.183 266.087C197.363 259.572 193.228 253.945 187.553 250.263C183.031 247.371 177.388 245.894 172.265 247.424C167.142 248.953 162.9 253.981 163.235 259.414C162.286 259.164 161.286 259.185 160.349 259.475C159.411 259.764 158.573 260.311 157.93 261.052C156.645 262.569 155.751 264.379 155.327 266.322C153.683 272.412 153.792 278.843 155.641 284.875L155.54 285.74C158.039 285.327 159.935 283.182 161.114 280.898C162.293 278.613 162.971 276.078 164.249 273.849C165.527 271.62 167.649 269.631 170.18 269.562L169.957 273.431L176.49 270.065C175.972 271.304 175.454 272.543 174.936 273.782C176.838 272.987 178.74 272.193 180.642 271.398C180.429 272.589 180.216 273.781 180.004 274.972C180.502 273.938 181.206 273.016 182.071 272.261C182.937 271.506 183.946 270.935 185.039 270.582C186.131 270.229 187.284 270.101 188.428 270.206C189.571 270.311 190.681 270.647 191.691 271.193C193.965 272.724 195.605 275.03 196.303 277.681C196.993 280.326 197.364 283.044 197.407 285.777C200.346 279.64 200.976 272.651 199.183 266.087Z" fill="#CCCCCC"/>
<path d="M321.528 346.975V347.015C321.467 346.868 321.427 346.712 321.408 346.553L321.528 346.975Z" fill="#F2F2F2"/>
<path d="M321.528 347.015C321.629 347.437 321.749 347.858 321.869 348.26C321.705 348.304 321.537 348.338 321.368 348.36L321.528 347.015Z" fill="#F2F2F2"/>
<path d="M467.522 359.519C467.518 387.75 456.586 414.882 437.017 435.23C417.448 455.577 390.762 467.559 362.553 468.663V250.375C390.763 251.474 417.453 263.454 437.023 283.802C456.593 304.151 467.524 331.287 467.522 359.519Z" fill="#CBC9FF"/>
<path d="M321.408 346.553L321.528 346.975V347.015C321.467 346.867 321.427 346.712 321.408 346.553Z" fill="#FFB6B6"/>
<path d="M390.13 338.184C390.136 341.067 389.779 343.94 389.066 346.734V346.754C387.462 353.056 384.13 358.785 379.446 363.296C374.761 367.806 368.911 370.919 362.553 372.284V304.064C370.357 305.742 377.351 310.043 382.369 316.252C387.388 322.46 390.126 330.201 390.13 338.184Z" fill="#A0616A"/>
<path d="M440.226 432.616C430.474 443.74 418.557 452.759 405.202 459.123C391.847 465.486 377.335 469.06 362.553 469.627V387.598C371.083 387.196 378.81 386.775 378.549 386.474L401.751 400.423L401.73 400.323L410.842 400.885C415.938 401.187 420.855 402.874 425.064 405.764C429.272 408.653 432.613 412.635 434.727 417.282L440.005 431.994L440.226 432.616Z" fill="#3F3D56"/>
<path d="M321.528 347.015C321.629 347.437 321.749 347.858 321.869 348.26C321.705 348.304 321.537 348.338 321.368 348.36L321.528 347.015Z" fill="#2F2E41"/>
<path d="M389.166 348.42C389.126 347.858 389.106 347.316 389.066 346.754V346.734C388.95 342.875 388.384 339.042 387.38 335.314C386.075 331.099 383.627 327.065 379.914 324.817C374.354 321.445 366.547 323.272 362.553 328.329V286.241C366.333 287.229 369.931 288.814 373.21 290.938C382.397 296.895 389.091 306.002 392.036 316.548C394.936 327.172 393.917 338.485 389.166 348.42Z" fill="#2F2E41"/>
<path d="M361.051 699.151C360.704 699.168 360.365 699.047 360.107 698.815C359.849 698.583 359.694 698.258 359.675 697.911V1.23965C359.711 0.899536 359.871 0.584613 360.125 0.355687C360.379 0.12676 360.709 6.10352e-05 361.051 6.10352e-05C361.393 6.10352e-05 361.723 0.12676 361.977 0.355687C362.231 0.584613 362.391 0.899536 362.426 1.23965V697.911C362.407 698.258 362.252 698.583 361.994 698.815C361.737 699.047 361.397 699.168 361.051 699.151Z" fill="#2F2E41"/>
<path d="M498.109 325.646L460.105 316.323L409.435 273.246L417.872 259.851L463.773 289.092C463.773 289.092 494.141 296.802 504.528 305.693L498.109 325.646Z" fill="#FFB6B6"/>
<path d="M411.198 274.061C416.312 274.061 420.457 269.915 420.457 264.802C420.457 259.688 416.312 255.543 411.198 255.543C406.085 255.543 401.94 259.688 401.94 264.802C401.94 269.915 406.085 274.061 411.198 274.061Z" fill="#FFB6B6"/>
<path d="M499.894 300.717L464.65 286.347L447.712 306.461L460.295 316.829L494.6 325.744L494.624 325.834C497.033 334.714 512.526 340.743 525.098 344.237C529.245 345.386 533.673 344.917 537.487 342.926C541.301 340.935 544.217 337.57 545.645 333.511C546.679 330.51 546.852 327.279 546.145 324.185C545.439 321.09 543.881 318.255 541.648 316L530.231 304.552L499.894 300.717Z" fill="#E6E6E6"/>
<path d="M402.444 661.904L390.093 657.203L402.343 607.327L420.572 614.264L402.444 661.904Z" fill="#FFB6B6"/>
<path d="M407.13 659.07L403.653 657.747L392.18 647.063L382.805 649.814C378.694 648.251 374.129 648.383 370.116 650.184C366.103 651.985 362.97 655.307 361.405 659.418L361.214 659.922L401.039 675.075L407.13 659.07Z" fill="#2F2E41"/>
<path d="M527.302 682.611L514.088 682.609L507.801 631.637L527.305 631.638L527.302 682.611Z" fill="#FFB6B6"/>
<path d="M530.674 678.296L526.955 678.296L512.432 672.39L504.649 678.295C500.25 678.295 496.031 680.043 492.92 683.153C489.81 686.263 488.062 690.482 488.062 694.88V695.419L530.673 695.421L530.674 678.296Z" fill="#2F2E41"/>
<path d="M547.454 463.052C547.454 463.052 548.997 481.569 545.139 499.315C542.721 510.439 541.819 534.228 541.482 550.433C541.281 560.08 536.943 561.617 536.943 561.617L539.821 583.801L532.794 664.428L507.333 662.114L500.389 499.315L454.625 535.501L455.895 539.733C456.512 541.79 451.959 541.527 450.138 542.666L445.648 553.083C445.736 554.805 445.294 556.512 444.382 557.975C443.47 559.438 442.132 560.587 440.547 561.266L416.698 632.211L398.104 621.054L404.302 556.594L412.979 526.843L447.923 483.884L448.694 471.539L452.166 471.681L453.934 466.524L457.182 457.651L547.454 463.052Z" fill="#2F2E41"/>
<path d="M548.788 466.941L548.925 466.748C556.269 456.466 545.224 431.759 543.558 428.177C545.536 427.535 547.23 426.227 548.353 424.476C549.475 422.725 549.955 420.639 549.713 418.574L548.994 412.469L548.246 406.481L553.609 401.118L553.624 400.985L556.71 373.98L561.197 356.044C562.888 349.263 562.744 342.155 560.78 335.449C558.816 328.742 555.102 322.679 550.021 317.882L539.648 308.103L527.043 289.451H506.715L499.745 302.616C492.987 304.178 486.992 308.061 482.803 313.589C478.614 319.116 476.496 325.939 476.82 332.867L478.4 367.396L472.216 410.388L472.212 418.168L468.991 421.748C467.831 423.037 466.988 424.58 466.529 426.252C466.07 427.925 466.008 429.682 466.349 431.383L466.772 433.501C465.135 434.202 463.69 435.286 462.558 436.662C461.427 438.037 460.641 439.664 460.268 441.405L459.137 446.684C458.169 447.961 451.781 456.479 451.781 458.808C451.781 459.157 452.039 459.495 452.593 459.87C456.946 462.818 481.009 468.828 491.659 464.567C503.003 460.031 548.099 466.835 548.553 466.905L548.788 466.941Z" fill="#E6E6E6"/>
<path d="M514.253 283.43C529.121 283.43 541.175 271.377 541.175 256.508C541.175 241.639 529.121 229.586 514.253 229.586C499.384 229.586 487.331 241.639 487.331 256.508C487.331 271.377 499.384 283.43 514.253 283.43Z" fill="#FFB6B6"/>
<path d="M505.473 374.771L486.771 409.144L432.2 447.159L421.399 435.586L461.374 398.655C461.374 398.655 476.57 371.255 487.815 363.478L505.473 374.771Z" fill="#FFB6B6"/>
<path d="M424.485 452.56C429.598 452.56 433.744 448.415 433.744 443.302C433.744 438.188 429.598 434.043 424.485 434.043C419.371 434.043 415.226 438.188 415.226 443.302C415.226 448.415 419.371 452.56 424.485 452.56Z" fill="#FFB6B6"/>
<path d="M503.789 379.353L515.55 351.127L511.296 335.528C510.45 332.469 508.765 329.708 506.431 327.556C504.098 325.404 501.209 323.948 498.092 323.351C493.86 322.572 489.491 323.428 485.866 325.747C482.242 328.066 479.633 331.674 478.567 335.843C475.346 348.489 472.873 364.928 479.379 371.434L479.445 371.5L460.085 396.747L488.597 412.862L503.789 379.353Z" fill="#E6E6E6"/>
<path d="M540.851 237.956C538.662 235.005 535.516 232.908 533.11 230.132C531.897 228.522 530.595 226.982 529.208 225.52C526.3 223.103 522.631 221.793 518.85 221.82C514.749 221.714 510.68 222.576 506.973 224.335C503.266 226.094 500.026 228.702 497.514 231.946C495.557 230.799 493.601 229.652 491.645 228.505C490.872 230.539 490.099 232.573 489.326 234.607C488.692 234.056 487.883 233.747 487.042 233.735C486.202 233.724 485.385 234.01 484.735 234.543C484.086 235.076 483.646 235.822 483.494 236.649C483.342 237.475 483.488 238.329 483.905 239.059C483.439 237.62 481.306 237.315 480.13 238.265C479.586 238.792 479.182 239.447 478.955 240.171C478.728 240.894 478.685 241.662 478.831 242.406C479.072 244.052 479.799 245.588 480.92 246.816C482.04 248.045 483.503 248.911 485.119 249.302C487.672 249.87 490.643 249.273 492.687 250.905C494.325 252.214 494.819 254.598 496.491 255.864C498.551 257.423 501.463 256.702 504.023 257.047C506.256 257.429 508.263 258.635 509.65 260.426C511.036 262.217 511.701 264.463 511.512 266.72C511.825 265.276 512.421 263.909 513.264 262.696C513.695 262.097 514.292 261.635 514.981 261.368C515.669 261.101 516.421 261.039 517.144 261.191C519.476 261.89 519.858 265.069 519.293 267.437C517.794 273.718 512.112 283.871 512.112 283.871C519.489 286.781 528.278 284.029 533.971 278.507C539.663 272.985 542.627 265.166 543.919 257.341C545.014 250.706 544.858 243.357 540.851 237.956Z" fill="#2F2E41"/>
<path d="M784.552 696.436C784.552 696.63 784.514 696.822 784.44 697.002C784.366 697.181 784.258 697.344 784.121 697.481C783.984 697.618 783.821 697.727 783.642 697.8C783.462 697.874 783.27 697.912 783.076 697.912H435.621C435.229 697.912 434.854 697.756 434.577 697.479C434.301 697.203 434.145 696.828 434.145 696.436C434.145 696.045 434.301 695.67 434.577 695.393C434.854 695.117 435.229 694.961 435.621 694.961H783.076C783.27 694.961 783.462 694.998 783.642 695.072C783.821 695.146 783.984 695.255 784.121 695.392C784.258 695.529 784.366 695.692 784.44 695.871C784.514 696.05 784.552 696.242 784.552 696.436Z" fill="#CCCCCC"/>
</g>
<defs>
<clipPath id="clip0_12_136">
<rect width="800" height="699.151" fill="white"/>
</clipPath>
</defs>
</svg>
