<svg width="18" height="18" viewBox="0 0 18 18" fill="none" xmlns="http://www.w3.org/2000/svg">
<path d="M17 5V13C17 15.2091 15.2091 17 13 17H5C2.79086 17 1 15.2091 1 13V5M17 5C17 2.79086 15.2091 1 13 1H5C2.79086 1 1 2.79086 1 5M17 5V8C17 10.2091 15.2091 12 13 12H12.5365C12.1127 12 11.7481 12.2774 11.5172 12.6328C10.9822 13.4558 10.0547 14 9 14C7.94532 14 7.01776 13.4558 6.48283 12.6328C6.25186 12.2774 5.88735 12 5.46353 12H5C2.79086 12 1 10.2091 1 8V5" stroke="#FEF9FA" stroke-linecap="round" stroke-linejoin="round"/>
</svg>
