<svg width="209" height="80" viewBox="0 0 209 80" fill="none" xmlns="http://www.w3.org/2000/svg">
<g filter="url(#filter0_d_9_36)">
<path d="M9 23.5L4 21.1132V26.8868L9 24.5V23.5ZM8.5 24.5H14.05V23.5H8.5V24.5ZM34.15 24.5H54.25V23.5H34.15V24.5ZM74.35 24.5H94.45V23.5H74.35V24.5ZM114.55 24.5H134.65V23.5H114.55V24.5ZM154.75 24.5H174.85V23.5H154.75V24.5ZM194.95 24.5H205V23.5H194.95V24.5Z" fill="white" fill-opacity="0.2"/>
</g>
<g filter="url(#filter1_d_9_36)">
<path d="M28.5 5L30.8868 0L25.1132 0L27.5 5H28.5ZM27.5 4.5V9H28.5V4.5H27.5ZM27.5 27L27.5 45H28.5L28.5 27H27.5ZM27.5 63L27.5 81H28.5L28.5 63H27.5ZM27.5 99L27.5 108H28.5L28.5 99H27.5Z" fill="white" fill-opacity="0.2"/>
</g>
<defs>
<filter id="filter0_d_9_36" x="0" y="21.1133" width="209" height="13.7735" filterUnits="userSpaceOnUse" color-interpolation-filters="sRGB">
<feFlood flood-opacity="0" result="BackgroundImageFix"/>
<feColorMatrix in="SourceAlpha" type="matrix" values="0 0 0 0 0 0 0 0 0 0 0 0 0 0 0 0 0 0 127 0" result="hardAlpha"/>
<feOffset dy="4"/>
<feGaussianBlur stdDeviation="2"/>
<feComposite in2="hardAlpha" operator="out"/>
<feColorMatrix type="matrix" values="0 0 0 0 0 0 0 0 0 0 0 0 0 0 0 0 0 0 0.25 0"/>
<feBlend mode="normal" in2="BackgroundImageFix" result="effect1_dropShadow_9_36"/>
<feBlend mode="normal" in="SourceGraphic" in2="effect1_dropShadow_9_36" result="shape"/>
</filter>
<filter id="filter1_d_9_36" x="21.1133" y="0" width="13.7734" height="116" filterUnits="userSpaceOnUse" color-interpolation-filters="sRGB">
<feFlood flood-opacity="0" result="BackgroundImageFix"/>
<feColorMatrix in="SourceAlpha" type="matrix" values="0 0 0 0 0 0 0 0 0 0 0 0 0 0 0 0 0 0 127 0" result="hardAlpha"/>
<feOffset dy="4"/>
<feGaussianBlur stdDeviation="2"/>
<feComposite in2="hardAlpha" operator="out"/>
<feColorMatrix type="matrix" values="0 0 0 0 0 0 0 0 0 0 0 0 0 0 0 0 0 0 0.25 0"/>
<feBlend mode="normal" in2="BackgroundImageFix" result="effect1_dropShadow_9_36"/>
<feBlend mode="normal" in="SourceGraphic" in2="effect1_dropShadow_9_36" result="shape"/>
</filter>
</defs>
</svg>
