<svg width="24" height="24" viewBox="0 0 24 24" fill="none" xmlns="http://www.w3.org/2000/svg">
<path fill-rule="evenodd" clip-rule="evenodd" d="M13.4505 4.56056C14.628 3.76068 16.1278 3.73853 17.2507 4.476C17.5138 4.64873 17.7861 4.91738 18.4346 5.56583C19.083 6.21428 19.3517 6.48663 19.5244 6.74964C20.2619 7.8726 20.2397 9.37242 19.4398 10.5499C19.2521 10.8263 18.9666 11.1149 18.2931 11.7884L17.3032 12.7783C17.1079 12.9736 17.1079 13.2902 17.3032 13.4854C17.4984 13.6807 17.815 13.6807 18.0103 13.4854L19.0002 12.4955L19.0484 12.4474C19.6598 11.836 20.0191 11.4767 20.267 11.1118C21.2827 9.61673 21.3307 7.67837 20.3602 6.2007C20.1238 5.84074 19.775 5.49192 19.1923 4.90936L19.1417 4.85872L19.091 4.80804L19.091 4.80802C18.5084 4.2254 18.1596 3.87653 17.7997 3.64014C16.322 2.66972 14.3837 2.71773 12.8886 3.73337C12.5237 3.98127 12.1644 4.34058 11.5531 4.95199L11.5049 5.00014L10.515 5.99009C10.3197 6.18535 10.3197 6.50194 10.515 6.6972C10.7102 6.89246 11.0268 6.89246 11.2221 6.6972L12.212 5.70725C12.8854 5.03383 13.1741 4.74831 13.4505 4.56056ZM6.69659 11.2227C6.89185 11.0274 6.89185 10.7108 6.69659 10.5156C6.50132 10.3203 6.18474 10.3203 5.98948 10.5156L4.99953 11.5055L4.95139 11.5537L4.95137 11.5537C4.33997 12.165 3.98066 12.5243 3.73276 12.8892C2.71712 14.3843 2.66911 16.3226 3.63953 17.8003C3.87592 18.1602 4.22479 18.5091 4.80742 19.0916L4.80744 19.0916L4.85811 19.1423L4.90877 19.1929C5.49131 19.7756 5.84013 20.1245 6.20009 20.3609C7.67776 21.3313 9.61612 21.2833 11.1112 20.2676C11.4761 20.0197 11.8354 19.6604 12.4467 19.0491L12.4467 19.049L12.4949 19.0009L13.4848 18.0109C13.6801 17.8156 13.6801 17.4991 13.4848 17.3038C13.2895 17.1085 12.973 17.1085 12.7777 17.3038L11.7878 18.2937C11.1143 18.9672 10.8257 19.2527 10.5493 19.4404C9.37181 20.2403 7.87199 20.2625 6.74903 19.525C6.48602 19.3523 6.21367 19.0836 5.56522 18.4352C4.91676 17.7867 4.64812 17.5144 4.47539 17.2514C3.73792 16.1284 3.76007 14.6286 4.55995 13.4511C4.7477 13.1747 5.03321 12.8861 5.70664 12.2126L6.69659 11.2227ZM15.1826 9.52485C15.3779 9.32959 15.3779 9.01301 15.1826 8.81775C14.9873 8.62249 14.6708 8.62249 14.4755 8.81775L8.81865 14.4746C8.62339 14.6699 8.62339 14.9864 8.81865 15.1817C9.01391 15.377 9.33049 15.377 9.52576 15.1817L15.1826 9.52485Z" fill="#FEF9FA"/>
</svg>
