<?xml version="1.0" standalone="no"?>
<!DOCTYPE svg PUBLIC "-//W3C//DTD SVG 20010904//EN"
 "http://www.w3.org/TR/2001/REC-SVG-20010904/DTD/svg10.dtd">
<svg version="1.0" xmlns="http://www.w3.org/2000/svg"
 width="500.000000pt" height="493.000000pt" viewBox="0 0 500.000000 493.000000"
 preserveAspectRatio="xMidYMid meet">

<g transform="translate(0.000000,493.000000) scale(0.100000,-0.100000)"
fill="#000000" stroke="none">
<path d="M3250 4266 c0 -8 5 -18 10 -21 6 -3 10 3 10 14 0 12 -4 21 -10 21 -5
0 -10 -6 -10 -14z"/>
<path d="M3281 4145 c1 -28 4 -75 9 -105 l7 -55 3 65 c3 87 0 123 -11 135 -5
5 -9 -10 -8 -40z"/>
<path d="M3302 3902 c3 -33 11 -68 17 -79 8 -14 10 -2 8 56 -1 53 -6 76 -16
79 -11 4 -13 -7 -9 -56z"/>
<path d="M3340 3763 c0 -5 5 -15 10 -23 8 -12 10 -11 10 8 0 12 -4 22 -10 22
-5 0 -10 -3 -10 -7z"/>
<path d="M2435 3283 c-170 -16 -357 -113 -476 -248 -85 -96 -121 -155 -161
-260 -35 -93 -40 -117 -53 -265 -24 -256 -87 -410 -225 -548 -39 -38 -206
-152 -223 -152 -10 0 -90 -29 -142 -51 -11 -5 -31 -8 -45 -7 -62 4 -200 -3
-200 -11 0 -16 170 -20 219 -5 25 8 62 14 82 14 20 0 42 7 49 15 7 8 25 15 40
15 15 0 33 7 40 15 7 8 17 15 22 15 8 0 51 28 85 55 7 6 34 25 61 44 27 19 59
50 72 70 13 20 34 47 46 61 25 28 84 137 84 154 0 6 9 28 20 49 15 27 19 48
14 71 -4 22 0 44 10 65 12 23 17 59 17 139 0 90 3 113 19 137 11 17 20 44 20
60 0 17 7 39 15 49 8 11 15 30 15 42 0 12 7 24 15 28 8 3 15 12 15 20 0 8 31
55 69 105 71 95 168 179 253 220 27 12 50 27 54 32 3 5 22 9 43 9 21 0 44 6
50 14 8 9 45 16 109 20 126 8 128 8 189 0 29 -3 65 -3 80 1 25 6 26 8 8 15
-24 9 -234 18 -290 13z"/>
<path d="M2796 3241 c-7 -11 22 -23 36 -15 6 4 5 10 -3 15 -18 11 -26 11 -33
0z"/>
<path d="M4811 2653 c0 -21 4 -47 8 -58 7 -16 9 -13 15 18 6 32 -5 77 -19 77
-3 0 -5 -17 -4 -37z"/>
<path d="M4827 2513 c-4 -3 -7 -36 -7 -72 0 -36 -7 -94 -15 -128 -32 -137
-150 -319 -259 -401 -69 -52 -197 -116 -266 -132 -77 -19 -81 -27 -11 -28 40
-1 63 4 71 14 7 8 23 14 35 14 12 0 28 7 35 15 7 8 20 15 30 15 10 0 23 7 30
15 7 8 18 15 24 15 13 0 114 85 135 114 8 10 34 40 58 65 43 44 93 129 93 156
0 7 7 18 16 26 10 8 14 22 10 40 -3 18 1 32 13 43 15 13 18 34 18 126 1 60 0
110 -1 110 -2 0 -6 -3 -9 -7z"/>
<path d="M635 1830 c3 -5 11 -10 16 -10 6 0 7 5 4 10 -3 6 -11 10 -16 10 -6 0
-7 -4 -4 -10z"/>
<path d="M700 1800 c0 -6 7 -10 15 -10 8 0 15 2 15 4 0 2 -7 6 -15 10 -8 3
-15 1 -15 -4z"/>
<path d="M3790 1800 c0 -5 7 -10 16 -10 8 0 12 5 9 10 -3 6 -10 10 -16 10 -5
0 -9 -4 -9 -10z"/>
<path d="M770 1770 c0 -5 17 -10 38 -9 30 0 33 2 17 9 -28 12 -55 12 -55 0z"/>
<path d="M3870 1770 c0 -5 15 -10 33 -9 27 0 29 2 12 9 -28 12 -45 12 -45 0z"/>
<path d="M4020 1740 c0 -6 30 -10 70 -10 40 0 70 4 70 10 0 6 -30 10 -70 10
-40 0 -70 -4 -70 -10z"/>
<path d="M3250 1198 c0 -7 5 -20 10 -28 8 -12 10 -9 10 13 0 15 -4 27 -10 27
-5 0 -10 -6 -10 -12z"/>
<path d="M3284 968 c0 -134 -3 -162 -23 -228 -44 -138 -96 -225 -189 -318 -73
-73 -132 -114 -225 -157 -69 -32 -71 -34 -43 -41 17 -4 36 -2 45 4 9 6 37 23
63 36 51 27 136 88 180 129 38 35 128 157 128 172 0 7 7 18 15 25 8 7 15 21
15 32 0 11 7 26 15 34 8 9 15 27 15 42 0 15 7 36 15 46 10 13 15 43 15 85 0
107 -13 291 -20 291 -3 0 -6 -69 -6 -152z"/>
<path d="M2270 240 c0 -5 7 -10 16 -10 8 0 12 5 9 10 -3 6 -10 10 -16 10 -5 0
-9 -4 -9 -10z"/>
<path d="M2685 216 l-60 -12 47 -7 c49 -7 98 4 98 23 0 12 -6 12 -85 -4z"/>
<path d="M2360 210 c0 -5 21 -9 48 -9 42 1 44 2 17 9 -44 11 -65 11 -65 0z"/>
</g>
</svg>
