<svg width="45" height="45" viewBox="0 0 45 45" fill="none" xmlns="http://www.w3.org/2000/svg">
<path d="M15.75 0C7.07817 0 0 7.07817 0 15.75C0 24.4218 7.07817 31.5 15.75 31.5C19.683 31.5 23.2763 30.0331 26.042 27.6328L27 28.5908V31.5L40.5 45L45 40.5L31.5 27H28.5908L27.6328 26.042C30.0331 23.2763 31.5 19.683 31.5 15.75C31.5 7.07817 24.4218 0 15.75 0ZM15.75 4.5C21.9899 4.5 27 9.51015 27 15.75C27 21.9899 21.9899 27 15.75 27C9.51015 27 4.5 21.9899 4.5 15.75C4.5 9.51015 9.51015 4.5 15.75 4.5Z" fill="white"/>
</svg>
